<svg width="1920" height="1080" xmlns="http://www.w3.org/2000/svg">
  <defs>
    <linearGradient id="heroGrad" x1="0%" y1="0%" x2="100%" y2="100%">
      <stop offset="0%" style="stop-color:#0a4d2e;stop-opacity:1" />
      <stop offset="50%" style="stop-color:#27ae60;stop-opacity:1" />
      <stop offset="100%" style="stop-color:#2ecc71;stop-opacity:1" />
    </linearGradient>
    <pattern id="grid" width="50" height="50" patternUnits="userSpaceOnUse">
      <path d="M 50 0 L 0 0 0 50" fill="none" stroke="rgba(255,255,255,0.1)" stroke-width="1"/>
    </pattern>
  </defs>

  <rect width="1920" height="1080" fill="url(#heroGrad)"/>
  <rect width="1920" height="1080" fill="url(#grid)"/>

  <!-- Abstract Earth/Globe Design -->
  <circle cx="960" cy="540" r="400" fill="none" stroke="rgba(255,255,255,0.15)" stroke-width="2"/>
  <circle cx="960" cy="540" r="350" fill="none" stroke="rgba(255,255,255,0.1)" stroke-width="1"/>
  <circle cx="960" cy="540" r="300" fill="none" stroke="rgba(255,255,255,0.08)" stroke-width="1"/>

  <!-- Latitude lines -->
  <ellipse cx="960" cy="540" rx="400" ry="100" fill="none" stroke="rgba(255,255,255,0.1)" stroke-width="1"/>
  <ellipse cx="960" cy="540" rx="400" ry="200" fill="none" stroke="rgba(255,255,255,0.08)" stroke-width="1"/>
  <ellipse cx="960" cy="540" rx="400" ry="300" fill="none" stroke="rgba(255,255,255,0.06)" stroke-width="1"/>

  <!-- Longitude lines -->
  <ellipse cx="960" cy="540" rx="100" ry="400" fill="none" stroke="rgba(255,255,255,0.1)" stroke-width="1"/>
  <ellipse cx="960" cy="540" rx="200" ry="400" fill="none" stroke="rgba(255,255,255,0.08)" stroke-width="1"/>
  <ellipse cx="960" cy="540" rx="300" ry="400" fill="none" stroke="rgba(255,255,255,0.06)" stroke-width="1"/>

  <!-- Carbon molecules/atoms -->
  <circle cx="1200" cy="300" r="15" fill="rgba(255,255,255,0.3)"/>
  <circle cx="720" cy="780" r="12" fill="rgba(255,255,255,0.25)"/>
  <circle cx="1400" cy="700" r="10" fill="rgba(255,255,255,0.2)"/>
  <circle cx="520" cy="350" r="8" fill="rgba(255,255,255,0.15)"/>

  <!-- Connecting lines -->
  <line x1="1200" y1="300" x2="960" y2="540" stroke="rgba(255,255,255,0.1)" stroke-width="1"/>
  <line x1="720" y1="780" x2="960" y2="540" stroke="rgba(255,255,255,0.1)" stroke-width="1"/>

  <!-- Central glow -->
  <circle cx="960" cy="540" r="80" fill="rgba(255,255,255,0.05)"/>
</svg>
